<svg width="25" height="25" viewBox="0 0 25 25" fill="none" xmlns="http://www.w3.org/2000/svg">
<path d="M2.67857 0H22.3214C23.8008 0 25 1.19922 25 2.67857V22.3214C25 23.8008 23.8008 25 22.3214 25H2.67857C1.19922 25 0 23.8008 0 22.3214V2.67857C0 1.19922 1.19922 0 2.67857 0ZM1.78571 22.3214C1.78571 22.8137 2.18627 23.2143 2.67857 23.2143H22.3214C22.8137 23.2143 23.2143 22.8137 23.2143 22.3214V2.67857C23.2143 2.18627 22.8137 1.78571 22.3214 1.78571H2.67857C2.18627 1.78571 1.78571 2.18627 1.78571 2.67857V22.3214ZM4.84749 4.36691L8.11194 3.61395C8.48808 3.52684 8.88288 3.57484 9.22719 3.74954C9.5715 3.92423 9.84337 4.21449 9.9952 4.56948L11.502 8.08482C11.7891 8.75513 11.5956 9.5457 11.0312 10.0073L9.68476 11.109C10.6617 12.8799 12.12 14.3382 13.891 15.3152L14.9926 13.9688C15.4542 13.4044 16.2448 13.2109 16.9152 13.4981L20.4304 15.0047C21.1635 15.3189 21.5654 16.1109 21.386 16.8879L20.633 20.1525C20.4597 20.9038 19.8 21.4286 19.029 21.4286C10.4892 21.4286 3.57143 14.519 3.57143 5.97098C3.57143 5.19989 4.09615 4.54023 4.84749 4.36691ZM18.9181 19.6424L19.6201 16.6001L16.3083 15.1807L14.3774 17.5406C10.9235 15.9203 9.12154 14.1653 7.45926 10.6225L9.8192 8.69163L8.39978 5.3798L5.35748 6.08175C5.41646 13.5429 11.4433 19.5834 18.9181 19.6424Z" fill="#7177F1"/>
</svg>
