<svg width="25" height="30" viewBox="0 0 25 30" fill="none" xmlns="http://www.w3.org/2000/svg">
<path d="M2.27438 27.0011L0 0H25L22.7226 26.9968L12.4848 30L2.27438 27.0011Z" fill="#1572B6"/>
<path d="M12.5 27.705L20.7733 25.2782L22.7195 2.20825H12.5V27.705Z" fill="#33A9DC"/>
<path d="M12.5 11.9903H16.6417L16.9273 8.59926H12.5V5.28748H20.348L20.273 6.17569L19.5044 15.3021H12.5V11.9903Z" fill="white"/>
<path d="M12.5195 20.5907L12.5053 20.595L9.01978 19.5986L8.797 16.9575H5.65479L6.09326 22.1572L12.5043 24.0407L12.5195 24.0365V20.5907Z" fill="#EBEBEB"/>
<path d="M16.3756 15.1617L15.9989 19.5964L12.5083 20.5928V24.0385L18.9244 22.1571L18.972 21.5978L19.5158 15.1617H16.3756Z" fill="white"/>
<path d="M12.5113 5.28748V8.59927H4.95091L4.88813 7.85463L4.74535 6.17569L4.67041 5.28748H12.5113Z" fill="#EBEBEB"/>
<path d="M12.4998 11.9904V15.3021H9.05781L8.99502 14.5575L8.85326 12.8786L8.77832 11.9904H12.4998Z" fill="#EBEBEB"/>
</svg>
