<svg width="25" height="30" viewBox="0 0 25 30" fill="none" xmlns="http://www.w3.org/2000/svg">
<path d="M2.27521 27.0011L0 0H25L22.7217 26.9968L12.4848 30L2.27521 27.0011Z" fill="#E44F26"/>
<path d="M12.5 27.705L20.7726 25.2783L22.7187 2.20825H12.5V27.705Z" fill="#F1662A"/>
<path d="M12.5001 12.2217H8.35879L8.07325 8.83058H12.5001V5.5188H4.65283L4.72776 6.40808L5.49629 15.5334H12.5001V12.2217Z" fill="#EBEBEB"/>
<path d="M12.4999 20.8221L12.4857 20.8264L9.00046 19.831L8.7777 17.1899H5.63574L6.07418 22.3885L12.4857 24.2721L12.4999 24.2678V20.8221Z" fill="#EBEBEB"/>
<path d="M12.4888 12.2218V15.5336H16.3426L15.9801 19.8289L12.4888 20.8254V24.2711L18.9053 22.3886L18.9519 21.8293L19.687 13.1111L19.764 12.2218H12.4888Z" fill="white"/>
<path d="M12.4888 5.5188V8.83058H20.0485L20.1113 8.08701L20.2541 6.40808L20.329 5.5188H12.4888Z" fill="white"/>
</svg>
