<svg width="210" height="42" viewBox="0 0 210 42" fill="none" xmlns="http://www.w3.org/2000/svg">
<path d="M58.2388 28.0117H55.2856L53.5044 18.7539L50.0474 28.2344H48.9575L45.5005 18.7539L43.6489 28.0117H40.7075L44.1646 10.832H45.7817L49.4966 22.3984L53.1294 10.832H54.7349L58.2388 28.0117ZM67.2505 20.957V28H64.2036V20.957L58.4146 10.832H61.6489L65.7153 18.1562L69.7935 10.832H73.0161L67.2505 20.957Z" fill="#7177F1"/>
<path d="M87.981 28.2344H86.7505L84.8872 17.7578L79.3208 28.2344H78.0903L75.6646 10.832H78.77L80.0708 21.2383L85.4849 10.832H86.8091L88.4028 21.168L93.4185 10.832H96.7231L87.981 28.2344ZM96.4771 21.6133C96.4771 18.5586 97.3091 15.9492 98.9731 13.7852C100.645 11.6133 102.817 10.5273 105.489 10.5273C107.543 10.5273 109.125 11.0742 110.235 12.168C111.344 13.2539 111.899 14.8281 111.899 16.8906C111.899 20.2734 111.047 23.0195 109.344 25.1289C107.641 27.2383 105.309 28.293 102.348 28.293C100.536 28.293 99.1021 27.6836 98.0474 26.4648C97.0005 25.2383 96.4771 23.6211 96.4771 21.6133ZM99.6411 21.2969C99.6411 22.6172 99.9028 23.668 100.426 24.4492C100.95 25.2305 101.715 25.6211 102.723 25.6211C104.583 25.6211 106.051 24.7852 107.129 23.1133C108.208 21.4414 108.747 19.4453 108.747 17.125C108.747 14.5 107.59 13.1875 105.278 13.1875C103.653 13.1875 102.305 14.0469 101.235 15.7656C100.172 17.4844 99.6411 19.3281 99.6411 21.2969ZM122.071 20.3945L125.903 28H122.469L119.188 20.8984C118.657 20.8906 118.004 20.8594 117.231 20.8047L115.907 28H112.766L115.907 10.832C118.188 10.7148 119.684 10.6562 120.395 10.6562C122.247 10.6562 123.708 11.0156 124.778 11.7344C125.856 12.4453 126.395 13.4766 126.395 14.8281C126.395 16.2031 126 17.3984 125.211 18.4141C124.43 19.4219 123.383 20.082 122.071 20.3945ZM118.567 13.4688L117.688 18.2734C118.149 18.3203 118.559 18.3438 118.918 18.3438C121.872 18.3438 123.348 17.4062 123.348 15.5312C123.348 14.7422 123.063 14.1836 122.493 13.8555C121.93 13.5195 120.993 13.3516 119.68 13.3516C119.571 13.3516 119.2 13.3906 118.567 13.4688ZM136.696 18.3789L140.961 28H137.528L134.317 20.6641L131.879 23.3477L131.012 28H127.965L131.118 10.832H134.165L132.747 18.6367L139.872 10.832H143.481L136.696 18.3789Z" fill="#323232"/>
<rect y="28.5714" width="35.9763" height="1.07143" fill="#323232"/>
<rect y="28.5714" width="35.9763" height="1.07143" fill="#323232"/>
<rect y="28.5714" width="35.9763" height="1.07143" fill="#323232"/>
<rect y="28.5714" width="35.9763" height="1.07143" fill="#323232"/>
<g filter="url(#filter0_f_67_3)">
<rect x="154.023" y="20" width="35.9763" height="1.07143" fill="#7177F1"/>
</g>
<rect x="11.2427" y="20" width="26.9822" height="1.07143" fill="#323232"/>
<g filter="url(#filter1_f_67_3)">
<rect x="158.521" y="28.5714" width="26.9822" height="1.07143" fill="#7177F1"/>
</g>
<g filter="url(#filter2_f_67_3)">
<rect x="158.521" y="11.4286" width="26.9822" height="1.07143" fill="#7177F1"/>
</g>
<rect x="23.6094" y="11.4286" width="17.9882" height="1.07143" fill="#323232"/>
<defs>
<filter id="filter0_f_67_3" x="134.023" y="0" width="75.9766" height="41.0714" filterUnits="userSpaceOnUse" color-interpolation-filters="sRGB">
<feFlood flood-opacity="0" result="BackgroundImageFix"/>
<feBlend mode="normal" in="SourceGraphic" in2="BackgroundImageFix" result="shape"/>
<feGaussianBlur stdDeviation="10" result="effect1_foregroundBlur_67_3"/>
</filter>
<filter id="filter1_f_67_3" x="156.521" y="26.5714" width="30.9824" height="5.07144" filterUnits="userSpaceOnUse" color-interpolation-filters="sRGB">
<feFlood flood-opacity="0" result="BackgroundImageFix"/>
<feBlend mode="normal" in="SourceGraphic" in2="BackgroundImageFix" result="shape"/>
<feGaussianBlur stdDeviation="1" result="effect1_foregroundBlur_67_3"/>
</filter>
<filter id="filter2_f_67_3" x="156.521" y="9.42856" width="30.9824" height="5.07144" filterUnits="userSpaceOnUse" color-interpolation-filters="sRGB">
<feFlood flood-opacity="0" result="BackgroundImageFix"/>
<feBlend mode="normal" in="SourceGraphic" in2="BackgroundImageFix" result="shape"/>
<feGaussianBlur stdDeviation="1" result="effect1_foregroundBlur_67_3"/>
</filter>
</defs>
</svg>
