<svg width="30" height="30" viewBox="0 0 30 30" fill="none" xmlns="http://www.w3.org/2000/svg">
<path d="M25 0H5C3.67493 0.00330031 2.40508 0.531144 1.46811 1.46811C0.531144 2.40508 0.00330031 3.67493 0 5V25C0 27.75 2.25 30 5 30H25C27.75 30 30 27.75 30 25V5C30 2.25 27.75 0 25 0ZM22.2663 21.0687C22.0162 21.6712 21.62 22.2025 21.1125 22.6113C20.5875 23.0363 19.9225 23.3862 19.1038 23.6362C18.2862 23.89 17.3137 24.0175 16.1875 24.0175H8.1475V6.5175H16.65C18.2225 6.5175 19.4825 6.87125 20.425 7.5925C21.375 8.3175 21.8475 9.3975 21.8475 10.855C21.8475 11.7362 21.6325 12.4925 21.2 13.1175C20.77 13.7388 20.15 14.225 19.35 14.5625V14.62C20.4175 14.845 21.2437 15.3513 21.7875 16.1388C22.3313 16.9263 22.61 17.9213 22.61 19.1225C22.61 19.795 22.48 20.435 22.235 21.0325L22.2663 21.0662V21.0687ZM18.7962 16.7563C18.2838 16.2875 17.5637 16.0588 16.6338 16.0588H11.2312V21.5187H16.6488C17.5737 21.5187 18.2987 21.2787 18.8112 20.7938C19.3237 20.3125 19.5863 19.6262 19.5863 18.7437C19.5775 17.8813 19.3237 17.2137 18.8112 16.7563H18.79H18.7962ZM18.0462 13.2275C18.5413 12.8075 18.7838 12.2062 18.7838 11.4225C18.7838 10.5425 18.565 9.9175 18.1213 9.56C17.6812 9.20375 17.0462 9.01875 16.2113 9.01875H11.2113V13.8475H16.2113C16.94 13.8475 17.5612 13.635 18.0413 13.2275H18.0462Z" fill="white"/>
</svg>
